<svg xmlns="http://www.w3.org/2000/svg" width="905" height="830" viewBox="0 0 905 830">
<path d="M 365 372 L 331 383 L 294 404 L 267 427 L 263 428 L 263 431 L 238 460 L 236 450 L 239 437 L 236 437 L 212 461 L 195 497 L 194 493 L 195 500 L 192 498 L 189 484 L 178 498 L 169 516 L 164 539 L 164 563 L 161 562 L 162 559 L 161 561 L 158 555 L 155 560 L 152 578 L 152 600 L 155 618 L 161 635 L 162 679 L 169 720 L 181 760 L 199 798 L 198 776 L 197 780 L 188 723 L 186 673 L 191 613 L 197 585 L 200 578 L 201 580 L 201 573 L 203 573 L 202 570 L 222 530 L 237 509 L 255 490 L 256 494 L 254 494 L 250 502 L 248 501 L 249 504 L 241 513 L 223 550 L 208 596 L 203 629 L 205 681 L 208 682 L 238 675 L 262 666 L 283 653 L 300 636 L 314 611 L 323 577 L 326 538 L 326 479 L 331 442 L 335 429 L 339 426 L 337 424 L 352 393 L 355 389 L 356 391 L 357 389 L 355 388 L 358 387 L 358 383 L 365 376 Z" fill="#2c7c5a" fill-rule="evenodd"/>
<path d="M 449 311 L 429 291 L 420 286 L 419 283 L 416 283 L 392 267 L 353 251 L 330 246 L 329 244 L 320 245 L 313 243 L 315 240 L 318 241 L 316 240 L 318 238 L 333 233 L 332 231 L 301 221 L 273 221 L 256 224 L 262 216 L 268 213 L 254 209 L 225 210 L 207 216 L 186 227 L 184 226 L 189 217 L 173 222 L 148 236 L 120 263 L 98 275 L 77 291 L 75 290 L 72 295 L 52 310 L 16 352 L 0 376 L 52 334 L 93 307 L 157 277 L 203 265 L 228 263 L 255 264 L 283 269 L 289 272 L 283 273 L 284 275 L 230 274 L 187 282 L 146 298 L 141 298 L 141 300 L 125 309 L 123 308 L 123 310 L 111 318 L 110 316 L 103 323 L 131 354 L 153 369 L 153 371 L 155 370 L 169 377 L 187 382 L 217 383 L 253 374 L 293 355 L 346 325 L 371 316 L 399 311 L 448 313 Z" fill="#49945a" fill-rule="evenodd"/>
<path d="M 904 444 L 853 487 L 797 525 L 789 527 L 786 531 L 747 549 L 708 559 L 661 561 L 629 556 L 625 554 L 630 554 L 630 552 L 622 554 L 608 549 L 675 551 L 719 543 L 764 525 L 789 509 L 793 509 L 804 498 L 804 494 L 767 460 L 743 447 L 721 441 L 695 440 L 656 450 L 623 466 L 563 502 L 541 510 L 505 516 L 461 515 L 491 541 L 529 563 L 558 574 L 597 581 L 599 583 L 595 586 L 579 592 L 589 598 L 612 604 L 638 604 L 653 601 L 654 603 L 652 605 L 649 604 L 651 606 L 643 613 L 652 615 L 680 615 L 709 605 L 711 606 L 711 604 L 722 598 L 724 599 L 721 601 L 723 603 L 721 607 L 729 605 L 772 582 L 792 558 L 824 536 L 863 500 L 887 471 Z" fill="#65ae57" fill-rule="evenodd"/>
<path d="M 372 474 L 364 507 L 363 552 L 370 590 L 382 622 L 379 624 L 382 623 L 384 627 L 382 628 L 374 624 L 366 616 L 364 616 L 370 643 L 369 646 L 371 646 L 380 663 L 380 667 L 383 668 L 394 683 L 389 686 L 390 684 L 386 685 L 380 682 L 395 712 L 412 729 L 434 743 L 431 744 L 437 744 L 437 746 L 426 745 L 426 747 L 444 761 L 445 764 L 447 763 L 452 768 L 454 767 L 463 772 L 461 773 L 464 772 L 504 785 L 509 790 L 517 792 L 518 795 L 521 794 L 523 797 L 532 799 L 541 804 L 539 805 L 543 804 L 546 806 L 544 807 L 548 806 L 551 810 L 553 808 L 559 811 L 557 812 L 564 812 L 563 814 L 565 815 L 567 813 L 581 817 L 579 819 L 582 820 L 582 818 L 593 821 L 590 822 L 602 822 L 602 824 L 599 824 L 602 825 L 607 823 L 633 828 L 628 829 L 647 829 L 647 827 L 587 803 L 587 801 L 580 800 L 571 795 L 571 793 L 569 794 L 567 791 L 565 792 L 543 780 L 536 773 L 535 775 L 533 771 L 529 771 L 525 766 L 523 767 L 517 763 L 515 759 L 514 761 L 512 757 L 510 758 L 508 754 L 506 755 L 493 742 L 492 744 L 454 705 L 428 660 L 427 651 L 426 653 L 420 638 L 423 632 L 443 669 L 458 690 L 457 692 L 482 717 L 502 733 L 504 737 L 519 745 L 521 749 L 522 747 L 528 751 L 529 754 L 529 752 L 532 753 L 533 756 L 535 755 L 550 763 L 549 765 L 551 766 L 551 764 L 554 765 L 555 768 L 558 767 L 561 760 L 562 762 L 561 758 L 563 759 L 564 757 L 563 752 L 569 729 L 571 731 L 572 726 L 570 728 L 572 688 L 566 667 L 567 663 L 566 665 L 566 661 L 564 661 L 564 657 L 562 657 L 558 649 L 559 647 L 556 646 L 557 644 L 548 635 L 550 634 L 530 614 L 528 615 L 503 597 L 475 581 L 477 580 L 472 580 L 471 577 L 467 577 L 463 572 L 462 574 L 459 570 L 457 571 L 452 568 L 451 565 L 449 566 L 439 560 L 432 553 L 424 549 L 417 540 L 416 542 L 415 538 L 410 533 L 409 535 L 407 533 L 407 530 L 402 527 L 400 521 L 392 513 L 393 511 L 390 510 L 390 506 L 386 503 L 388 501 L 385 501 L 384 494 L 378 487 L 378 479 Z" fill="#1d6c5f" fill-rule="evenodd"/>
<path d="M 705 42 L 716 106 L 719 161 L 715 211 L 703 260 L 688 292 L 675 312 L 661 329 L 653 334 L 652 332 L 678 290 L 694 247 L 700 220 L 703 192 L 701 151 L 683 153 L 654 162 L 632 174 L 613 191 L 596 218 L 587 249 L 584 284 L 583 355 L 577 389 L 561 427 L 542 457 L 576 445 L 614 424 L 653 387 L 669 366 L 671 367 L 669 389 L 691 370 L 698 360 L 709 338 L 712 327 L 714 327 L 716 339 L 714 339 L 714 336 L 714 339 L 718 342 L 726 333 L 737 314 L 742 296 L 742 263 L 744 263 L 749 272 L 753 253 L 754 229 L 749 203 L 744 191 L 741 153 L 734 117 L 719 72 Z" fill="#7ac254" fill-rule="evenodd"/>
<path d="M 267 0 L 324 23 L 381 54 L 428 89 L 461 125 L 472 142 L 474 150 L 479 155 L 493 193 L 493 196 L 491 194 L 490 198 L 466 152 L 438 117 L 415 95 L 412 95 L 376 71 L 359 64 L 349 90 L 344 112 L 343 139 L 347 159 L 362 188 L 383 210 L 414 232 L 469 266 L 499 293 L 519 323 L 534 358 L 544 315 L 545 272 L 539 236 L 526 200 L 532 201 L 533 204 L 535 203 L 544 212 L 546 211 L 542 187 L 530 162 L 531 160 L 516 143 L 521 142 L 532 148 L 527 131 L 518 116 L 504 101 L 480 86 L 490 84 L 478 73 L 453 58 L 421 49 L 381 28 L 337 12 L 290 2 Z" fill="#7ec954" fill-rule="evenodd"/>
</svg>